<?xml version="1.0" encoding="UTF-8"?> <svg xmlns="http://www.w3.org/2000/svg" id="Слой_1" data-name="Слой 1" viewBox="0 0 100 100.01"> <defs> <style>.cls-1{fill:#ffcf3d;}</style> </defs> <title>i_Монтажная область 4</title> <path class="cls-1" d="M99.45,43A49.85,49.85,0,0,0,24.05,7.34a2.29,2.29,0,0,0-.65.39,49.88,49.88,0,0,0,5,87.3,2.15,2.15,0,0,0,.46.22A49.51,49.51,0,0,0,50,100c1.12,0,2.22-.1,3.32-.17h.08l.12,0a49.6,49.6,0,0,0,46-56.3,2.25,2.25,0,0,0-.08-.58ZM88.12,25.74a44.68,44.68,0,0,1,6,14.37,57.33,57.33,0,0,0-44,7A51.41,51.41,0,0,1,37.76,35.51a64.93,64.93,0,0,1,50.36-9.77ZM50,4.76a45,45,0,0,1,33.91,15.4A69.69,69.69,0,0,0,35.08,31.59a54.54,54.54,0,0,1-7.62-20.74A45,45,0,0,1,50,4.76Zm-26.94,9A57.32,57.32,0,0,0,31.5,35,57.37,57.37,0,0,0,47.57,51.2a51.45,51.45,0,0,1-4.23,19.9A85.3,85.3,0,0,1,10.88,27.37,45.53,45.53,0,0,1,23.06,13.74Zm6.31,76.48A45.06,45.06,0,0,1,8,33.39a89.7,89.7,0,0,0,33.24,42A54.09,54.09,0,0,1,29.36,90.22Zm22.89,4.91c-.76,0-1.5.11-2.26.11a44.83,44.83,0,0,1-15.83-2.91A57.09,57.09,0,0,0,47.42,73.7a57.06,57.06,0,0,0,4.9-22.32,51.48,51.48,0,0,1,17.2-7A72.66,72.66,0,0,1,52.26,95.13Zm6.68-.78a76.94,76.94,0,0,0,15.31-50.7A54.42,54.42,0,0,1,95,45.29,45.21,45.21,0,0,1,59,94.35Z"></path> </svg> 